<svg xmlns="http://www.w3.org/2000/svg" xmlns:xlink="http://www.w3.org/1999/xlink" viewBox="0 0 171.64 391.66"><defs><style>.cls-1{fill:url(#linear-gradient);}.cls-2{fill:url(#linear-gradient-2);}</style><linearGradient id="linear-gradient" x1="88.8" y1="379.63" x2="88.8" y2="94.5" gradientUnits="userSpaceOnUse"><stop offset="0" stop-color="#052336"/><stop offset="0.54" stop-color="#018c8b"/><stop offset="1" stop-color="#88d1d3"/></linearGradient><linearGradient id="linear-gradient-2" x1="-32.79" y1="96.24" x2="205.74" y2="296.4" gradientUnits="userSpaceOnUse"><stop offset="0" stop-color="#004951"/><stop offset="1" stop-color="#88d1d3"/></linearGradient></defs><g id="Layer_2" data-name="Layer 2"><g id="Layer_1-2" data-name="Layer 1"><path class="cls-1" d="M90,288.79l64.09,43.69s-28.4,55-68.36,45.32v.54c-40.29,10.37-69-45.17-69-45.17l64.71-44.12V200.71l-1.22-3.66S3.94,109.15,11.87,94.5H166.3S104,187.89,85.12,192.17l4.58,5.49.3.37Z"/><path class="cls-2" d="M171.64,305.88a85.88,85.88,0,0,1-85.78,85.78c-22.81,0-44.45-9.81-60.93-27.62C9.14,347,0,328.6,0,305.9,1.3,254.84,68.63,216,77,208.66c-7.74,7.21-59.14,61.33-56,97.24,0,37,30.31,65,65,65a65.1,65.1,0,0,0,65-65c0-14.34-12.52-37.05-35.25-63.94-8-9.46-23.46-24.82-34.49-35.58-7.43-6.85-29.47-28.16-40.74-40.84C13.65,135.43.09,110.09.09,90.19A93.31,93.31,0,0,1,24.93,27.62C41.41,9.81,63.05,0,85.86,0c47.3,0,85.7,42.52,85.7,89.82-1.16,44-67.19,87.12-75.45,94.84,7.66-7.55,55.14-60.34,54.4-94.84,0-35.85-28.79-69.07-64.65-69.07-34.64,0-65,32.45-65,69.44,0,14.21,12.4,36,34.93,61.37,8.2,9.24,34.12,33.88,45.17,44.27,7.41,7.22,18.92,18.95,30.55,32.71C158.14,260.07,171.64,286.09,171.64,305.88Z"/></g></g></svg>