<svg xmlns="http://www.w3.org/2000/svg" xmlns:xlink="http://www.w3.org/1999/xlink" viewBox="0 0 542.95 530.73"><defs><style>.cls-1{fill:url(#linear-gradient);}.cls-2{fill:url(#linear-gradient-2);}.cls-3{fill:url(#New_Gradient_Swatch_1);}</style><linearGradient id="linear-gradient" x1="277.85" y1="379.63" x2="277.85" y2="94.5" gradientUnits="userSpaceOnUse"><stop offset="0" stop-color="#052336"/><stop offset="0.54" stop-color="#018c8b"/><stop offset="1" stop-color="#88d1d3"/></linearGradient><linearGradient id="linear-gradient-2" x1="189.06" y1="195.83" x2="360.7" y2="195.83" gradientUnits="userSpaceOnUse"><stop offset="0" stop-color="#004951"/><stop offset="1" stop-color="#88d1d3"/></linearGradient><linearGradient id="New_Gradient_Swatch_1" x1="271.47" y1="530.73" x2="271.47" y2="445.18" gradientUnits="userSpaceOnUse"><stop offset="0" stop-color="#fff"/><stop offset="1" stop-color="#88d1d3"/></linearGradient></defs><g id="Layer_2" data-name="Layer 2"><g id="Layer_1-2" data-name="Layer 1"><path class="cls-1" d="M279.06,288.79l64.09,43.69s-28.4,55-68.36,45.32v.54c-40.29,10.37-69-45.17-69-45.17l64.7-44.12V200.71l-1.22-3.66S193,109.15,200.93,94.5H355.36s-62.26,93.39-81.18,97.67l4.57,5.49.31.37Z"/><path class="cls-2" d="M360.7,305.88a85.88,85.88,0,0,1-85.78,85.78c-22.82,0-44.45-9.81-60.93-27.62-15.8-17.07-24.93-35.44-24.93-58.14,1.3-51.06,68.62-89.93,77-97.24C258.28,215.87,206.87,270,210,305.9c0,37,30.32,65,65,65a65.1,65.1,0,0,0,65-65c0-14.34-12.52-37.05-35.25-63.94-8-9.46-23.47-24.82-34.49-35.58-7.43-6.85-29.47-28.16-40.74-40.84-26.76-30.09-40.33-55.43-40.33-75.33A93.27,93.27,0,0,1,214,27.62C230.47,9.81,252.1,0,274.92,0c47.3,0,85.7,42.52,85.7,89.82-1.16,44-67.19,87.12-75.46,94.84,7.66-7.55,55.15-60.34,54.4-94.84,0-35.85-28.78-69.07-64.64-69.07-34.64,0-65,32.45-65,69.44,0,14.21,12.4,36,34.92,61.37C253,160.8,279,185.44,290,195.83c7.4,7.22,18.92,18.95,30.55,32.71C347.19,260.07,360.7,286.09,360.7,305.88Z"/><path class="cls-3" d="M43.7,475.34a19.73,19.73,0,0,0-3.53-3.11A20.6,20.6,0,0,0,36,470a25.13,25.13,0,0,0-4.83-1.34,31.49,31.49,0,0,0-5.56-.47q-9.66,0-14.06,3.66a12.16,12.16,0,0,0-4.41,9.87,10.17,10.17,0,0,0,2,6.62,13.6,13.6,0,0,0,6.26,3.94,90.26,90.26,0,0,0,11,2.87,80.33,80.33,0,0,1,12.34,3.48,18.79,18.79,0,0,1,8,5.42q2.82,3.42,2.83,9.26A16.69,16.69,0,0,1,48,521a14.36,14.36,0,0,1-4.83,5.42,23.79,23.79,0,0,1-7.47,3.24,38.45,38.45,0,0,1-9.6,1.12,41.71,41.71,0,0,1-9.74-1.12,37.78,37.78,0,0,1-8.72-3.24A34,34,0,0,1,0,520.89l2.5-3.8A25.6,25.6,0,0,0,7.1,521,29,29,0,0,0,12.66,524a36.39,36.39,0,0,0,6.45,1.9,35.46,35.46,0,0,0,7.15.7q8.62,0,13.5-3.19a11.9,11.9,0,0,0,2.64-16.54,15.75,15.75,0,0,0-6.87-4.4,85.89,85.89,0,0,0-11.59-3.2,82.1,82.1,0,0,1-11.83-3.33,16.45,16.45,0,0,1-7.33-5c-1.64-2.1-2.46-4.95-2.46-8.53a16.92,16.92,0,0,1,2.92-10.05,18.11,18.11,0,0,1,8.21-6.26,32.38,32.38,0,0,1,12.16-2.13,35.46,35.46,0,0,1,7.93.84,26,26,0,0,1,6.77,2.55,27.34,27.34,0,0,1,5.8,4.32Z"/><path class="cls-3" d="M103.26,530.26V464.39H108v65.87Zm4-75.71L104,453.07l5.66-7.89h5.38Z"/><path class="cls-3" d="M226.66,530.26V473.57l-25.88,44.35h-3.16l-25.88-44.35v56.69H167V464.39h4.74l27.46,47.13,27.46-47.13h4.73v65.87Z"/><path class="cls-3" d="M334.29,526v4.27H290.4V464.39h43.05v4.27H295.13v25.88h33.5v4.08h-33.5V526Z"/><path class="cls-3" d="M388.93,530.26V464.39H416.3a17,17,0,0,1,7.75,1.76,19.87,19.87,0,0,1,6,4.69,22.48,22.48,0,0,1,4,6.54,19.87,19.87,0,0,1,1.44,7.42,21.79,21.79,0,0,1-1.95,9.18,19.8,19.8,0,0,1-5.43,7.15,15.88,15.88,0,0,1-8.11,3.52l16.42,25.61H431L415,505.4H393.67v24.86ZM393.67,501h23.1a12.23,12.23,0,0,0,7.42-2.32,15.36,15.36,0,0,0,4.87-6,18.53,18.53,0,0,0,1.72-7.89,16.33,16.33,0,0,0-2-7.93,16.86,16.86,0,0,0-5.29-5.94,12.62,12.62,0,0,0-7.37-2.27H393.67Z"/><path class="cls-3" d="M511,464.39h4.08L543,530.26h-5l-9-21.71H497.13l-9,21.71H483Zm16.32,40.26-14.28-34.51-14.32,34.51Z"/></g></g></svg>