<?xml version="1.0" encoding="utf-8"?>
<!-- Generator: Adobe Illustrator 25.2.0, SVG Export Plug-In . SVG Version: 6.00 Build 0)  -->
<svg version="1.1" id="Layer_1" xmlns="http://www.w3.org/2000/svg" xmlns:xlink="http://www.w3.org/1999/xlink" x="0px" y="0px"
	 viewBox="0 0 840.1 817.4" style="enable-background:new 0 0 840.1 817.4;" xml:space="preserve">
<style type="text/css">
	.st0{fill:#F9F9F9;}
</style>
<ellipse cx="419.7" cy="408.7" rx="248.5" ry="355.1"/>
<path class="st0" d="M420.1,109.8c-59.1,0-111,55.4-111,118.5c0,4.5,0.7,9.4,2.1,14.7h217.9c0.9-5.3,1.4-10.4,1.3-15.3
	C530.4,166.5,481.3,109.8,420.1,109.8z M420.1,109.8c-59.1,0-111,55.4-111,118.5c0,4.5,0.7,9.4,2.1,14.7h217.9
	c0.9-5.3,1.4-10.4,1.3-15.3C530.4,166.5,481.3,109.8,420.1,109.8z M420.1,109.8c-59.1,0-111,55.4-111,118.5c0,4.5,0.7,9.4,2.1,14.7
	h217.9c0.9-5.3,1.4-10.4,1.3-15.3C530.4,166.5,481.3,109.8,420.1,109.8z M470.9,487.4c-10.2-12.1-27.7-30-43.7-45.9l0,121.4
	l98.6,67.7c3.5-10.7,5.4-22.2,5.4-34.1C531.1,572.1,509.7,533.3,470.9,487.4z M420.1,109.8c-59.1,0-111,55.4-111,118.5
	c0,4.5,0.7,9.4,2.1,14.7h217.9c0.9-5.3,1.4-10.4,1.3-15.3C530.4,166.5,481.3,109.8,420.1,109.8z M530.4,227.7
	c0-61.2-49.1-117.9-110.3-117.9c-59.1,0-111,55.4-111,118.5c0,4.5,0.7,9.4,2.1,14.7h217.9C530,237.7,530.5,232.6,530.4,227.7z
	 M470.9,487.4c-10.2-12.1-27.7-30-43.7-45.9l0,121.4l98.6,67.7c3.5-10.7,5.4-22.2,5.4-34.1C531.1,572.1,509.7,533.3,470.9,487.4z
	 M420,7C198.2,7,18.4,186.8,18.4,408.7S198.2,810.4,420,810.4s401.7-179.8,401.7-401.7S641.9,7,420,7z M420.1,743
	c-38.9,0-75.9-16.7-104-47.1c-27-29.2-42.5-60.5-42.5-99.2c2.2-87.2,117.1-153.6,131.3-166c-13.2,12.3-101,104.7-95.7,166
	c0,12.1,1.9,23.7,5.4,34.5l98.5-67.7V427.8c-0.4-0.4-0.8-0.7-1.1-1.1c-12.7-11.7-50.3-48.1-69.6-69.7
	c-45.6-51.4-68.8-94.6-68.8-128.6c0-38.7,15.5-77.7,42.4-106.8c28.1-30.4,65.1-47.1,104-47.1c80.7,0,146.3,72.6,146.3,153.3
	c-1.7,65.4-87.2,129.5-118.8,153.8c-5.5,5.8-10.6,10.7-15.2,14.5c5.1,4.9,9.7,9.2,13.4,12.7c12.6,12.3,32.3,32.4,52.2,55.9
	c45.5,53.8,68.6,98.2,68.6,132C566.5,677.3,500.8,743,420.1,743z M530.4,227.7c0-61.2-49.1-117.9-110.3-117.9
	c-59.1,0-111,55.4-111,118.5c0,4.5,0.7,9.4,2.1,14.7h217.9C530,237.7,530.5,232.6,530.4,227.7z M427.2,441.5l0,121.4l98.6,67.7
	c3.5-10.7,5.4-22.2,5.4-34.1c0-24.5-21.4-63.2-60.2-109.1C460.7,475.3,443.2,457.4,427.2,441.5z M470.9,487.4
	c-10.2-12.1-27.7-30-43.7-45.9l0,121.4l98.6,67.7c3.5-10.7,5.4-22.2,5.4-34.1C531.1,572.1,509.7,533.3,470.9,487.4z M420.1,109.8
	c-59.1,0-111,55.4-111,118.5c0,4.5,0.7,9.4,2.1,14.7h217.9c0.9-5.3,1.4-10.4,1.3-15.3C530.4,166.5,481.3,109.8,420.1,109.8z
	 M420.1,109.8c-59.1,0-111,55.4-111,118.5c0,4.5,0.7,9.4,2.1,14.7h217.9c0.9-5.3,1.4-10.4,1.3-15.3
	C530.4,166.5,481.3,109.8,420.1,109.8z M420.1,109.8c-59.1,0-111,55.4-111,118.5c0,4.5,0.7,9.4,2.1,14.7h217.9
	c0.9-5.3,1.4-10.4,1.3-15.3C530.4,166.5,481.3,109.8,420.1,109.8z M420.1,109.8c-59.1,0-111,55.4-111,118.5c0,4.5,0.7,9.4,2.1,14.7
	h217.9c0.9-5.3,1.4-10.4,1.3-15.3C530.4,166.5,481.3,109.8,420.1,109.8z"/>
</svg>
